<svg height="512pt" viewBox="0 -1 512.00101 512" width="512pt" xmlns="http://www.w3.org/2000/svg"><path d="M428.086 449.797V323.105h-52.277v126.692h-17.07l43.206 52.93 43.207-52.93zm0 0" fill="#4890e3"/><path d="M428.086 449.797V323.105H407.96v126.692l-21.688 33.73 15.672 19.2 43.207-52.93zm0 0" fill="#2970d6"/><path d="M299.605 302.95v58.527c0 14.984 45.856 27.132 102.426 27.132 56.567 0 102.422-12.148 102.422-27.132v-58.528zm0 0" fill="#646464"/><path d="M299.605 244.422v58.527c0 14.985 45.856 27.13 102.426 27.13 56.567 0 102.422-12.145 102.422-27.13v-58.527zm0 0" fill="#d0cfd1"/><path d="M299.605 185.895v58.527c0 14.984 45.856 27.129 102.426 27.129 56.567 0 102.422-12.149 102.422-27.13v-58.526zm0 0" fill="#646464"/><path d="M480.309 302.95v58.527c0 13.902-39.477 25.359-90.352 26.941 3.961.125 7.988.191 12.074.191 56.567 0 102.422-12.148 102.422-27.132v-58.528zm0 0" fill="#4b4b4b"/><path d="M480.309 244.422v58.527c0 13.903-39.477 25.36-90.352 26.942 3.961.125 7.988.191 12.074.191 56.567 0 102.422-12.148 102.422-27.133v-58.527zm0 0" fill="#9c9b9d"/><path d="M480.309 185.895v58.527c0 13.902-39.477 25.36-90.352 26.941 3.961.121 7.988.188 12.074.188 56.567 0 102.422-12.149 102.422-27.13v-58.526zm0 0" fill="#4b4b4b"/><path d="M504.453 185.895c0-14.985-45.855-27.133-102.422-27.133-56.57 0-102.426 12.148-102.426 27.133 0 14.98 45.856 27.128 102.426 27.128 56.567 0 102.422-12.148 102.422-27.128zm0 0" fill="#d0cfd1"/><path d="M400.688 158.762c-4.032 0-8 .062-11.907.183 50.957 1.563 90.52 13.032 90.52 26.95 0 13.914-39.563 25.382-90.52 26.945 3.906.12 7.875.183 11.906.183 56.567 0 102.422-12.148 102.422-27.128 0-14.985-45.855-27.133-102.421-27.133zm0 0" fill="#9c9b9d"/><path d="M420.7 86.625c0 10.355-8.4 18.75-18.755 18.75-10.355 0-18.75-8.395-18.75-18.75s8.395-18.754 18.75-18.754c10.356 0 18.754 8.399 18.754 18.754zm0 0" fill="#f9cd45"/><path d="M83.832 389.156v76.383h52.277v-76.383h17.07l-43.21-52.933-43.207 52.933zm0 0" fill="#f45a3c"/><path d="M110.977 336.223l-12.579 15.406 16.582 37.527-1.007 76.383h23.14v-76.383h17.07zm0 0" fill="#e24a2a"/><path d="M128.723 26.297c0 10.355-8.395 18.75-18.754 18.75-10.356 0-18.75-8.395-18.75-18.75s8.394-18.754 18.75-18.754c10.36 0 18.754 8.398 18.754 18.754zm0 0" fill="#f9cd45"/><path d="M7.547 244.422v58.527c0 14.985 45.855 27.13 102.422 27.13 56.57 0 102.426-12.145 102.426-27.13v-58.527zm0 0" fill="#646464"/><path d="M7.547 185.895v58.527c0 14.984 45.855 27.129 102.422 27.129 56.57 0 102.426-12.149 102.426-27.13v-58.526zm0 0" fill="#d0cfd1"/><path d="M7.547 127.363v58.532c0 14.984 45.855 27.128 102.422 27.128 56.57 0 102.426-12.148 102.426-27.128v-58.532zm0 0" fill="#646464"/><path d="M188.246 244.422v58.527c0 13.903-39.473 25.36-90.348 26.942 3.957.125 7.985.191 12.07.191 56.571 0 102.427-12.148 102.427-27.133v-58.527zm0 0" fill="#4b4b4b"/><path d="M188.246 185.895v58.527c0 13.902-39.473 25.36-90.348 26.941 3.957.125 7.985.188 12.07.188 56.571 0 102.427-12.145 102.427-27.13v-58.526zm0 0" fill="#9c9b9d"/><path d="M188.246 127.363v58.532c0 13.898-39.473 25.359-90.348 26.94 3.957.122 7.985.188 12.07.188 56.571 0 102.427-12.148 102.427-27.128v-58.532zm0 0" fill="#4b4b4b"/><path d="M109.969 279.098c-27.992 0-54.399-2.914-74.356-8.2C11.98 264.641 0 255.73 0 244.422a7.547 7.547 0 0 1 15.094 0c.199 1.234 5.176 7.008 25.797 12.254 18.57 4.726 43.105 7.332 69.078 7.332s50.508-2.606 69.082-7.332c20.62-5.242 25.594-11.02 25.8-12.278 0-4.168 3.376-7.535 7.544-7.535s7.546 3.39 7.546 7.559c0 11.312-11.98 20.219-35.613 26.476-19.957 5.29-46.367 8.2-74.36 8.2zm0 0"/><path d="M212.395 127.363c0-14.98-45.856-27.129-102.426-27.129-56.567 0-102.422 12.149-102.422 27.13 0 14.984 45.855 27.132 102.422 27.132 56.57 0 102.426-12.148 102.426-27.133zm0 0" fill="#d0cfd1"/><path d="M108.625 100.234c-4.027 0-7.996.063-11.906.184 50.96 1.562 90.523 13.031 90.523 26.945 0 13.918-39.562 25.387-90.523 26.95 3.906.117 7.879.183 11.906.183 56.566 0 102.426-12.148 102.426-27.133 0-14.98-45.86-27.129-102.426-27.129zm0 0" fill="#9c9b9d"/><path d="M272.246 55.02c0 10.355-8.394 18.75-18.754 18.75-10.355 0-18.75-8.395-18.75-18.75s8.395-18.75 18.75-18.75c10.36 0 18.754 8.394 18.754 18.75zm0 0" fill="#f9cd45"/><path d="M476.387 159.414c-18.172-4.812-41.7-7.648-66.895-8.121v-39.48c10.832-3.254 18.75-13.313 18.75-25.192 0-14.5-11.797-26.293-26.297-26.293-9.984 0-18.683 5.59-23.136 13.809l-99.051-20.465c-.707-13.875-12.215-24.95-26.266-24.95-10.32 0-19.265 5.981-23.566 14.653L136.16 24.004C134.992 10.574 123.695 0 109.97 0c-14.5 0-26.293 11.797-26.293 26.297 0 11.879 7.914 21.937 18.75 25.187V92.77c-25.164.472-48.66 3.308-66.813 8.117C11.98 107.145 0 116.055 0 127.363V302.95c0 11.313 11.98 20.219 35.613 26.477 17.375 4.605 39.645 7.406 63.59 8.05l-38.289 46.907c-1.84 2.258-2.219 5.375-.969 8.008s3.903 4.308 6.817 4.308h9.523v68.84a7.547 7.547 0 0 0 7.547 7.547h52.273a7.547 7.547 0 0 0 7.547-7.547v-22.266a7.546 7.546 0 0 0-15.09 0v14.723H91.38v-68.84a7.547 7.547 0 0 0-7.547-7.547H82.66l27.309-33.453 27.308 33.453h-1.168a7.547 7.547 0 0 0-7.546 7.547v22.149a7.547 7.547 0 0 0 15.093 0v-14.606h9.524a7.543 7.543 0 0 0 5.843-12.316l-38.285-46.906c23.946-.645 46.211-3.446 63.59-8.051 23.633-6.258 35.613-15.168 35.613-26.477V127.363c0-11.308-11.98-20.218-35.613-26.476-18.152-4.809-41.648-7.645-66.812-8.117V51.484c6.714-2.015 12.308-6.644 15.593-12.703l94.297 19.485c1.606 12.972 12.688 23.05 26.09 23.05 9.64 0 18.082-5.218 22.66-12.976l99.602 20.578c.945 10.863 8.515 19.852 18.644 22.894v39.485c-9.898.187-19.59.738-28.882 1.656a7.548 7.548 0 0 0-6.77 8.254 7.542 7.542 0 0 0 8.25 6.766c8.813-.871 18.004-1.387 27.402-1.575v16.274c0 4.164 3.38 7.543 7.547 7.543s7.547-3.38 7.547-7.543V166.39c23.18.449 44.832 2.976 61.617 7.25 20.617 5.242 25.594 11.015 25.801 12.23-.207 1.262-5.187 7.035-25.8 12.281-18.575 4.727-43.11 7.328-69.083 7.328s-50.504-2.601-69.078-7.328c-20.594-5.238-25.582-11.004-25.797-12.226v-.012c.035-.133 2.953-7.23 30.442-13.383 4.066-.914 6.625-4.949 5.715-9.015s-4.942-6.625-9.012-5.715c-28.028 6.277-42.238 15.726-42.238 28.094v175.582c0 11.312 11.98 20.222 35.613 26.48 11.648 3.086 25.508 5.355 40.586 6.715v47.578h-9.524a7.547 7.547 0 0 0-5.843 12.32l43.207 52.93a7.536 7.536 0 0 0 5.843 2.773 7.538 7.538 0 0 0 5.848-2.773L451 454.57a7.547 7.547 0 1 0-5.844-12.32h-9.523v-47.563c15.144-1.359 29.062-3.632 40.754-6.73C500.02 381.699 512 372.789 512 361.48V185.895c0-11.313-11.98-20.223-35.613-26.48zm-271.54 26.461c-.214 1.27-5.202 7.035-25.796 12.273-18.574 4.727-43.11 7.329-69.082 7.329s-50.508-2.602-69.078-7.329c-20.621-5.246-25.598-11.02-25.797-12.253V146.3c5.402 2.832 12.242 5.351 20.52 7.543 19.956 5.285 46.363 8.199 74.355 8.199s54.398-2.914 74.36-8.2c8.273-2.19 15.116-4.71 20.519-7.542zm-25.796 129.332c-18.574 4.723-43.11 7.328-69.082 7.328s-50.508-2.605-69.078-7.328c-20.621-5.246-25.598-11.023-25.797-12.258v-98.117c5.402 2.828 12.242 5.348 20.52 7.54 19.956 5.284 46.363 8.198 74.355 8.198s54.398-2.914 74.36-8.199c8.273-2.191 15.116-4.71 20.519-7.539v98.098c-.215 1.27-5.203 7.035-25.797 12.277zm0-200.098c20.496 5.215 25.535 10.95 25.793 12.258-.258 1.305-5.297 7.04-25.793 12.254-18.574 4.727-43.11 7.328-69.082 7.328s-50.508-2.601-69.078-7.328c-20.594-5.238-25.582-11.004-25.797-12.226v-.012c.215-1.27 5.203-7.035 25.797-12.274 16.761-4.265 38.386-6.793 61.535-7.246v14.48a7.546 7.546 0 1 0 15.09 0v-14.48c23.148.453 44.773 2.98 61.535 7.246zM109.969 37.5c-6.176 0-11.203-5.027-11.203-11.203 0-6.18 5.027-11.207 11.203-11.207 6.18 0 11.207 5.027 11.207 11.207S116.148 37.5 109.969 37.5zm143.523 28.723c-6.176 0-11.203-5.028-11.203-11.203 0-6.18 5.027-11.207 11.203-11.207 6.18 0 11.207 5.027 11.207 11.207 0 6.18-5.027 11.203-11.207 11.203zm137.25 20.402c0-6.18 5.028-11.207 11.203-11.207 6.176 0 11.207 5.027 11.207 11.207 0 6.176-5.027 11.203-11.207 11.203-6.175 0-11.203-5.027-11.203-11.203zm106.164 216.309c-.215 1.27-5.203 7.035-25.797 12.273-18.574 4.723-43.105 7.328-69.078 7.328s-50.508-2.605-69.082-7.328c-20.62-5.246-25.594-11.023-25.8-12.258v-39.594c5.406 2.833 12.246 5.352 20.523 7.543 19.957 5.286 46.363 8.2 74.355 8.2 27.993 0 54.403-2.914 74.36-8.2 8.273-2.191 15.117-4.71 20.52-7.543zM327.672 212.37c19.957 5.285 46.367 8.2 74.36 8.2s54.398-2.915 74.355-8.2c8.277-2.191 15.117-4.71 20.52-7.539v39.57c-.216 1.27-5.204 7.036-25.798 12.274-18.57 4.726-43.105 7.332-69.078 7.332s-50.508-2.606-69.082-7.332c-20.62-5.242-25.594-11.02-25.797-12.254v-39.59c5.403 2.828 12.246 5.348 20.52 7.54zm100.414 244.973h1.168l-27.309 33.453-27.308-33.453h1.172a7.546 7.546 0 0 0 7.543-7.547v-54.09c6.109.293 12.351.45 18.68.45 6.269 0 12.448-.157 18.507-.442v54.082a7.547 7.547 0 0 0 7.547 7.547zm43.023-83.61c-18.574 4.727-43.105 7.329-69.078 7.329s-50.508-2.602-69.082-7.329c-20.62-5.246-25.594-11.02-25.8-12.257v-39.59c5.406 2.828 12.246 5.347 20.523 7.539 19.957 5.289 46.363 8.199 74.355 8.199 27.993 0 54.403-2.91 74.36-8.2 8.273-2.19 15.117-4.71 20.52-7.538v39.574c-.216 1.27-5.204 7.035-25.798 12.273zm0 0"/></svg>